# xmcd
#
# Track frame offsets: 
#        150
#        12632
#        31194
#        58202
#        77365
#        94526
#        110899
#        129958
#        142856
#        157286
#        175696
#        190113
#
# Disc length: 2722 seconds
#
# Revision: 0
# Processed by: cddbd v1.5.2PL0 Copyright (c) Steve Scherf et al.
# Submitted via: ExactAudioCopyFreeDBPlugin 1.0
#
DISCID=970aa00c
DTITLE=Bob Margolin with Mike Sponza Band - Blues Around the World
DYEAR=2012
DGENRE=Blues
TTITLE0=Lost Again
TTITLE1=Blues Lover
TTITLE2=Down In the Alley
TTITLE3=Rather Than Be Free
TTITLE4=While You're Down There
TTITLE5=Ice or Fire
TTITLE6=Crazy 'Bout You Baby
TTITLE7=Rollin' and Tumblin'
TTITLE8=It's Hard to Be On the Road
TTITLE9=Hard Feelings
TTITLE10=The Door Was Open
TTITLE11=Love In Vain
EXTD=
EXTT0=
EXTT1=
EXTT2=
EXTT3=
EXTT4=
EXTT5=
EXTT6=
EXTT7=
EXTT8=
EXTT9=
EXTT10=
EXTT11=
PLAYORDER=
